<svg xmlns="http://www.w3.org/2000/svg" viewBox="0 0 500 500"><g id="freepik--Sparkle--inject-77"><g id="freepik--sparkle--inject-77" style="opacity:0.2"><path d="M246.5,235.1c-1.86-4.33-2-8.67-2-13.11l-.16-13.61c-.12-7.06-.11-14.24-.1-21.18v-6c.08-16.27.32-32.82.56-48.82l.08-5.61q.16-9.6.32-19.21c.18-11.55.37-23.49.64-35.23l.63-27.22q.15-4.62.27-9.26c.09-3,.18-6,.27-9.08.09,3.05.18,6.09.27,9.08s.17,6.18.27,9.27l.63,27.21c.27,11.74.46,23.68.64,35.22q.16,9.61.32,19.22l.08,5.62c.24,16,.48,32.54.56,48.82v6.05c0,6.94,0,14.11-.1,21.15L249.51,222c0,4.44-.15,8.78-2,13.11Z" style="fill:#B0BEC5"></path><path d="M246.42,235.2c-2.58-3.95-3.49-8.2-4.26-12.56l-2.52-13.39c-1.35-6.95-2.59-14-3.79-20.9l-1-5.88c-2.74-16-5.37-32.32-7.92-48.1l-.91-5.62q-1.49-9.47-3-18.94C221.15,98.4,219.26,86.6,217.49,75l-4.1-26.92q-.66-4.56-1.34-9.12c-.44-3-.88-6-1.32-9,.62,2.95,1.22,5.89,1.82,8.79l1.89,9.18,5.36,26.69c2.29,11.45,4.53,23.11,6.71,34.39q1.83,9.53,3.68,19l1.08,5.62c3,15.68,6.1,31.9,9,47.88l1,5.88c1.22,6.85,2.48,13.94,3.59,20.93l2.21,13.44c.77,4.37,1.37,8.67.3,13.26Z" style="fill:#B0BEC5"></path><path d="M246.36,235.31c-3.23-3.44-4.86-7.47-6.38-11.64l-4.8-12.74c-2.54-6.62-5-13.39-7.37-19.94l-2-5.6c-5.48-15.28-10.9-30.88-16.15-46l-1.87-5.4q-3.15-9.15-6.32-18.3c-3.76-10.86-7.65-22.1-11.4-33.18l-8.71-25.79-2.91-8.81-2.86-8.61c1.12,2.81,2.24,5.61,3.33,8.37s2.29,5.79,3.45,8.68l9.91,25.36c4.25,10.92,8.5,22,12.62,32.8q3.44,9,6.9,18l2,5.21c5.7,15,11.59,30.45,17.23,45.72l2.07,5.67c2.38,6.52,4.85,13.26,7.15,19.93L244.7,222c1.52,4.17,2.86,8.3,2.6,13Z" style="fill:#B0BEC5"></path><path d="M246.31,235.42c-3.77-2.82-6.08-6.51-8.29-10.35l-7-11.71c-3.64-6.06-7.22-12.29-10.69-18.31l-3-5.21c-8.07-14.14-16.14-28.61-23.95-42.6l-2.71-4.86q-4.65-8.4-9.33-16.79c-5.61-10.09-11.42-20.53-17.06-30.83L151.27,70.87q-2.19-4.09-4.4-8.17l-4.3-8,4.74,7.68q2.43,4,4.89,7.93l14.16,23.26c6.09,10,12.21,20.24,18.14,30.13q5,8.26,9.91,16.53l2.87,4.81c8.2,13.74,16.69,28,24.9,42l3,5.19c3.48,6,7.09,12.24,10.52,18.43l6.67,11.87c2.22,3.84,4.26,7.68,4.82,12.36Z" style="fill:#B0BEC5"></path><path d="M246.29,235.54c-4.2-2.12-7.11-5.35-10-8.75l-8.88-10.33c-4.63-5.33-9.24-10.84-13.7-16.17l-3.86-4.61c-10.36-12.47-20.77-25.24-30.83-37.6l-3.68-4.51q-6.06-7.5-12.16-15c-7.26-8.94-14.77-18.18-22.09-27.33L124.12,90l-5.82-7.36-5.56-7,6,6.76,6.18,7,18,20.44c7.74,8.8,15.54,17.8,23.09,26.51q6.31,7.29,12.64,14.57l3.76,4.35c10.43,12.07,21.22,24.56,31.72,36.94l3.84,4.57c4.48,5.33,9.12,10.84,13.57,16.34l8.63,10.53c2.86,3.4,5.53,6.83,6.89,11.34Z" style="fill:#B0BEC5"></path><path d="M246.29,235.67c-4.51-1.37-7.94-4-11.33-6.89l-10.53-8.63c-5.49-4.45-11-9.07-16.3-13.54l-4.61-3.88c-12.43-10.53-25-21.36-37.08-31.83l-4.21-3.65q-7.26-6.31-14.54-12.61c-8.72-7.55-17.73-15.37-26.55-23.11l-20.44-18-7-6.19-6.75-6c2.37,1.87,4.73,3.73,7,5.57l7.35,5.8,21.26,17c9.14,7.32,18.39,14.83,27.33,22.09L165,164l4.37,3.56c12.4,10.1,25.22,20.55,37.74,30.94l4.64,3.89c5.31,4.45,10.81,9.05,16.14,13.67l10.32,8.88c3.41,2.85,6.63,5.76,8.76,10Z" style="fill:#B0BEC5"></path><path d="M246.31,235.79c-4.67-.56-8.51-2.6-12.35-4.82l-11.87-6.67c-6.18-3.42-12.4-7-18.41-10.51l-5.21-3c-14.08-8.22-28.31-16.72-42.07-24.93L151.65,183l-16.48-9.88C125.26,167.2,115,161.07,105,155L81.73,140.8,73.87,136l-7.75-4.78,8,4.31,8.16,4.4,23.88,13.05c10.29,5.63,20.71,11.43,30.79,17q8.42,4.68,16.84,9.35l5.06,2.83c13.92,7.77,28.32,15.8,42.4,23.84l5.17,3c6,3.47,12.28,7.06,18.34,10.7l11.71,7c3.85,2.22,7.53,4.52,10.36,8.3Z" style="fill:#B0BEC5"></path><path d="M245.18,235.94c-4.26,0-8-1.25-11.83-2.63L220.5,228.8c-6.68-2.3-13.43-4.77-19.95-7.15l-5.65-2.07c-15.3-5.65-30.8-11.55-45.79-17.25l-5.15-2-18-6.89c-10.78-4.11-21.92-8.37-32.84-12.63l-25.36-9.91-8.68-3.45-8.37-3.32L59.31,167l8.84,2.93,25.79,8.71c11.08,3.75,22.32,7.64,33.19,11.4q9.15,3.16,18.29,6.31l5.37,1.87c15.1,5.25,30.71,10.67,46,16.15l5.67,2.06c6.53,2.37,13.28,4.81,19.87,7.34l12.73,4.81c4.18,1.51,8.21,3.14,11.64,6.37l-.34.95Z" style="fill:#B0BEC5"></path><path d="M241.18,236.59a47.24,47.24,0,0,1-8-.87l-13.44-2.21c-6.95-1.11-14-2.36-20.82-3.57l-6-1.06c-16-2.91-32.25-6-47.95-9l-5.55-1.06-19-3.67c-11.3-2.18-23-4.44-34.47-6.73l-26.7-5.35c-3-.64-6.07-1.26-9.1-1.88l-8.86-1.84,8.9,1.31L59.46,202l26.91,4.1c11.59,1.77,23.36,3.65,34.73,5.47q9.53,1.53,19.05,3l5.5.89c15.82,2.55,32.17,5.19,48.22,7.93l5.94,1.05c6.84,1.19,13.91,2.43,20.84,3.77L234,230.76c4.37.77,8.62,1.68,12.57,4.26l-.18,1A22.81,22.81,0,0,1,241.18,236.59Z" style="fill:#B0BEC5"></path><path d="M192.56,238.37c-16.3-.08-32.87-.32-48.9-.55l-5.53-.08q-9.65-.18-19.28-.32c-11.52-.19-23.44-.38-35.16-.65l-27.22-.63c-3.1-.1-6.2-.18-9.31-.27l-9-.27,9-.26,9.31-.27,27.22-.64c11.72-.27,23.64-.46,35.16-.64q9.65-.15,19.28-.32l5.73-.08c16-.23,32.47-.47,48.7-.55l11.83,0c4.53,0,9.89,0,15.38.11l13.61.16c4.47,0,8.79.16,13.12,2v1c-4.33,1.85-8.66,2-13.09,2l-13.64.15c-5.48.1-10.84.11-15.35.11Z" style="fill:#B0BEC5"></path><path d="M41.31,271.87l8.79-1.81,9.17-1.9L86,262.81c11.5-2.3,23.21-4.56,34.53-6.74q9.47-1.83,18.91-3.66l5.55-1.06c15.7-3,31.95-6.12,47.95-9l5.94-1.05c6.84-1.22,13.9-2.47,20.87-3.58l13.43-2.21a47.44,47.44,0,0,1,8-.88,22.81,22.81,0,0,1,5.24.58l.18,1c-3.95,2.57-8.2,3.48-12.57,4.25L220.65,243c-6.94,1.35-14,2.59-20.87,3.79l-5.91,1c-16.08,2.76-32.47,5.4-48.31,8l-5.41.87-19,3c-11.39,1.83-23.18,3.71-34.79,5.49l-26.91,4.1c-3.07.44-6.15.89-9.22,1.35Z" style="fill:#B0BEC5"></path><path d="M50.72,307l8.38-3.33c2.9-1.15,5.79-2.29,8.68-3.45l25.36-9.9c10.94-4.27,22.1-8.53,32.89-12.66L144,270.84l5.06-1.93c15-5.71,30.55-11.62,45.88-17.29l5.63-2.05c6.53-2.39,13.28-4.86,20-7.16l12.85-4.51c3.81-1.39,7.57-2.63,11.83-2.63l1.18,0,.34.95c-3.43,3.22-7.46,4.85-11.63,6.37l-12.74,4.81c-6.59,2.52-13.34,5-19.86,7.33l-5.68,2.06c-15.27,5.48-30.85,10.89-45.92,16.13l-5.45,1.89-18.28,6.32c-10.87,3.76-22.12,7.65-33.2,11.4l-25.8,8.71-8.89,3Z" style="fill:#B0BEC5"></path><path d="M66.11,340l7.72-4.76,7.9-4.88L105,316.24c10-6.09,20.24-12.21,30.12-18.13q8.28-5,16.55-9.92l4.88-2.91c13.72-8.19,27.91-16.66,41.94-24.85l5.23-3c6-3.48,12.21-7.07,18.38-10.5L234,240.23c3.85-2.22,7.69-4.25,12.36-4.81l.51.87c-2.83,3.77-6.51,6.08-10.35,8.29l-11.71,6.95c-6,3.63-12.26,7.2-18.26,10.66l-5.26,3c-14,8-28.37,16-42.24,23.75l-5.22,2.92q-8.46,4.68-16.9,9.39c-10.06,5.59-20.46,11.37-30.73,17L82.26,331.33l-8.19,4.42Z" style="fill:#B0BEC5"></path><path d="M87,369.86l6.72-6q3.5-3.11,7-6.22l20.44-18c8.83-7.76,17.86-15.58,26.59-23.14L162.23,304l4.22-3.65c12.12-10.47,24.65-21.29,37.07-31.82l4.56-3.84c5.33-4.48,10.84-9.12,16.34-13.58L235,242.43c3.41-2.85,6.83-5.53,11.34-6.89l.65.77c-2.13,4.21-5.35,7.12-8.75,10l-10.33,8.87c-5.33,4.63-10.83,9.23-16.15,13.68l-4.64,3.89c-12.53,10.41-25.38,20.88-37.8,31l-4.3,3.5q-7.5,6.06-15,12.14c-8.95,7.27-18.2,14.79-27.35,22.11l-21.26,17L94,364.32Z" style="fill:#B0BEC5"></path><path d="M112.74,395.61c1.87-2.38,3.74-4.73,5.57-7.05l5.81-7.35,17-21.26c7.33-9.14,14.84-18.39,22.1-27.34q6.09-7.49,12.15-15l3.71-4.54c10-12.34,20.45-25.11,30.8-37.56l3.86-4.62c4.46-5.32,9.07-10.83,13.7-16.17l8.87-10.32c2.86-3.4,5.77-6.63,10-8.76l.77.65c-1.36,4.51-4,7.94-6.88,11.33l-8.63,10.54c-4.46,5.5-9.1,11-13.58,16.34l-3.84,4.57C203.63,291.47,192.84,304,182.41,316l-3.76,4.35q-6.33,7.26-12.64,14.56c-7.55,8.71-15.35,17.72-23.09,26.52l-18,20.44-6.15,6.91C116.8,391.05,114.78,393.33,112.74,395.61Z" style="fill:#B0BEC5"></path><path d="M142.57,416.49l4.29-8q2.22-4.09,4.41-8.18l13.06-23.89c5.64-10.3,11.44-20.74,17.06-30.82l9.33-16.81,2.71-4.87c7.81-14,15.88-28.44,24-42.59l3-5.19c3.47-6,7.05-12.26,10.69-18.32l7-11.71c2.21-3.85,4.52-7.53,8.29-10.36l.88.51c-.56,4.68-2.6,8.51-4.82,12.36l-6.67,11.87c-3.43,6.18-7,12.39-10.51,18.4l-3,5.21c-8.23,14.09-16.73,28.33-25,42.1L194.41,331q-5,8.27-9.92,16.54c-5.92,9.89-12,20.11-18.13,30.12L152.2,400.88c-1.63,2.62-3.25,5.26-4.87,7.89Z" style="fill:#B0BEC5"></path><path d="M175.56,431.88l2.85-8.6q1.47-4.41,2.92-8.82l8.71-25.8c3.76-11.08,7.65-22.33,11.41-33.2q3.17-9.13,6.31-18.28l1.89-5.45c5.24-15.07,10.66-30.65,16.13-45.92l2-5.62c2.37-6.54,4.82-13.31,7.36-19.91l4.8-12.74c1.52-4.18,3.15-8.2,6.38-11.64l.94.35c.26,4.7-1.08,8.84-2.59,13L240.2,262.1c-2.3,6.68-4.77,13.43-7.16,20L231,287.71c-5.65,15.28-11.54,30.77-17.24,45.75l-2,5.18q-3.47,9-6.91,18c-4.11,10.76-8.36,21.88-12.61,32.8l-9.91,25.36-3.45,8.67C177.8,426.26,176.69,429.06,175.56,431.88Z" style="fill:#B0BEC5"></path><path d="M210.73,441.3c.44-3,.88-6.06,1.32-9s.9-6.08,1.34-9.13l4.1-26.91c1.78-11.62,3.66-23.43,5.49-34.84q1.52-9.47,3-18.94l.91-5.58c2.54-15.79,5.18-32.11,7.92-48.14l1-5.88c1.2-6.85,2.44-14,3.79-20.89l2.52-13.38c.77-4.38,1.68-8.63,4.26-12.57l1,.17c1.07,4.59.47,8.89-.3,13.26l-2.21,13.44c-1.11,7-2.37,14.08-3.59,20.94l-1,5.88c-2.9,16-6,32.22-9,47.92l-1.07,5.57q-1.84,9.53-3.68,19.06c-2.18,11.28-4.43,22.93-6.71,34.39l-5.36,26.69-1.89,9.18C212,435.4,211.35,438.34,210.73,441.3Z" style="fill:#B0BEC5"></path><path d="M247,444.48q-.13-4.59-.27-9.08t-.27-9.27l-.63-27.22c-.27-11.74-.46-23.67-.64-35.22q-.16-9.6-.32-19.21l-.08-5.62c-.24-16-.48-32.55-.56-48.82v-6c0-6.94,0-14.11.1-21.17l.16-13.61c0-4.44.15-8.78,2-13.12h1c1.86,4.34,2,8.68,2,13.11l.16,13.62c.12,7.05.11,14.22.1,21.15V290c-.08,16.27-.32,32.82-.56,48.82l-.08,5.62q-.16,9.6-.32,19.21c-.18,11.55-.37,23.48-.64,35.22l-.63,27.22q-.15,4.64-.27,9.27T247,444.48Z" style="fill:#B0BEC5"></path><path d="M283.27,441.3c-.62-3-1.22-5.9-1.82-8.79l-1.89-9.18-5.36-26.69c-2.28-11.46-4.53-23.11-6.71-34.39q-1.83-9.53-3.68-19.06l-1.07-5.57c-3-15.7-6.11-31.93-9-47.92l-1-5.88c-1.22-6.86-2.48-13.94-3.59-20.94l-2.21-13.43c-.77-4.38-1.37-8.68-.3-13.27l1-.17c2.58,3.94,3.49,8.19,4.26,12.56L254.36,262c1.35,6.95,2.59,14.05,3.79,20.9l1,5.89c2.74,16,5.38,32.34,7.92,48.13l.91,5.58q1.49,9.46,3,18.94c1.83,11.41,3.71,23.22,5.49,34.84l4.1,26.92q.66,4.56,1.34,9.12C282.39,435.24,282.83,438.26,283.27,441.3Z" style="fill:#B0BEC5"></path><path d="M318.44,431.88c-1.13-2.82-2.24-5.62-3.33-8.38l-3.45-8.68-9.91-25.35c-4.25-10.92-8.5-22-12.61-32.8q-3.45-9-6.91-18l-2-5.18c-5.7-15-11.59-30.47-17.24-45.75L261,282.06c-2.39-6.53-4.86-13.28-7.16-20l-4.5-12.84c-1.52-4.17-2.86-8.31-2.6-13l.94-.35c3.23,3.44,4.86,7.46,6.38,11.63l4.8,12.74c2.54,6.61,5,13.38,7.36,19.92l2,5.62c5.47,15.27,10.89,30.85,16.13,45.92l1.89,5.45q3.13,9.13,6.31,18.26c3.76,10.88,7.65,22.13,11.41,33.22l8.71,25.8q1.45,4.41,2.92,8.82Z" style="fill:#B0BEC5"></path><path d="M351.43,416.49l-4.8-7.79-4.83-7.83-14.16-23.25c-6.09-10-12.21-20.23-18.13-30.12q-5-8.28-9.92-16.54l-2.82-4.73c-8.22-13.77-16.72-28-24.95-42.1l-3.07-5.3c-3.46-6-7-12.17-10.45-18.31l-6.67-11.87c-2.22-3.85-4.26-7.68-4.82-12.36l.88-.51c3.77,2.83,6.08,6.51,8.29,10.35l7,11.72c3.64,6.06,7.22,12.29,10.69,18.32l3,5.2c8.07,14.14,16.14,28.6,23.94,42.58l2.72,4.88,9.33,16.79c5.62,10.09,11.42,20.53,17.06,30.83l13.06,23.89q2.22,4.13,4.45,8.25C348.58,411.19,350,413.83,351.43,416.49Z" style="fill:#B0BEC5"></path><path d="M381.26,395.61l-6.1-6.85q-3-3.43-6.1-6.86l-18-20.44c-7.74-8.8-15.54-17.81-23.09-26.52q-6.32-7.29-12.64-14.56L311.59,316c-10.43-12.08-21.22-24.56-31.72-36.95L276,274.52c-4.48-5.33-9.12-10.84-13.57-16.34l-8.63-10.53c-2.86-3.4-5.53-6.83-6.9-11.34l.78-.65c4.2,2.13,7.11,5.36,10,8.75l8.88,10.33c4.63,5.34,9.24,10.85,13.7,16.17l3.86,4.62c10.35,12.45,20.75,25.22,30.81,37.56l3.7,4.54q6.06,7.5,12.15,15c7.26,8.95,14.77,18.2,22.1,27.34l17,21.26,5.8,7.35C377.52,390.88,379.39,393.23,381.26,395.61Z" style="fill:#B0BEC5"></path><path d="M407,369.86l-7-5.54-7.39-5.84-21.26-17c-9.15-7.32-18.4-14.84-27.35-22.11q-7.49-6.08-15-12.14l-4.29-3.5c-12.43-10.12-25.28-20.59-37.82-31l-4.63-3.89c-5.32-4.45-10.82-9.05-16.15-13.68l-10.32-8.87c-3.41-2.85-6.63-5.76-8.76-10l.65-.77c4.51,1.36,7.93,4,11.33,6.89l10.53,8.63c5.51,4.46,11,9.1,16.35,13.58l4.56,3.84c12.42,10.53,25,21.35,37.07,31.83l4.22,3.64,14.5,12.58c8.73,7.57,17.76,15.39,26.59,23.15l20.44,18q3.48,3.12,7,6.22Z" style="fill:#B0BEC5"></path><path d="M427.89,340l-8-4.29-8.2-4.42-23.88-13.06c-10.27-5.62-20.67-11.4-30.73-17q-8.44-4.69-16.9-9.38L335.07,289c-13.89-7.75-28.26-15.77-42.31-23.79l-5.26-3c-6-3.46-12.21-7-18.25-10.66l-11.71-6.94c-3.85-2.22-7.53-4.53-10.36-8.3l.5-.87c4.68.56,8.52,2.59,12.36,4.81l11.87,6.67c6.18,3.43,12.38,7,18.39,10.5l5.23,3c14,8.19,28.22,16.66,41.94,24.85l4.88,2.91q8.26,5,16.55,9.92c9.88,5.92,20.1,12,30.12,18.13l23.25,14.16,7.9,4.88Z" style="fill:#B0BEC5"></path><path d="M443.28,307l-8.53-2.82-8.9-3-25.79-8.71c-11.08-3.75-22.33-7.64-33.2-11.4l-18.28-6.32L343.13,273c-15.07-5.24-30.65-10.65-45.92-16.13l-5.68-2.06c-6.52-2.36-13.27-4.81-19.86-7.33l-12.73-4.81c-4.18-1.52-8.21-3.15-11.64-6.37l.34-.95,1.18,0c4.26,0,8,1.24,11.83,2.63l12.85,4.5c6.69,2.31,13.44,4.78,20,7.17l5.63,2.05C314.43,257.29,330,263.2,345,268.91l5.06,1.93L368,277.7c10.79,4.13,21.95,8.39,32.89,12.66l25.36,9.9c2.89,1.16,5.78,2.3,8.68,3.45Z" style="fill:#B0BEC5"></path><path d="M452.69,271.87l-8.93-1.3c-3.07-.46-6.15-.91-9.22-1.35l-26.91-4.1c-11.61-1.78-23.4-3.66-34.79-5.49l-19-3-5.41-.87c-15.84-2.56-32.23-5.2-48.31-8l-5.91-1c-6.85-1.2-13.93-2.44-20.87-3.79L260,240.44c-4.37-.77-8.62-1.68-12.57-4.25l.18-1a22.81,22.81,0,0,1,5.24-.58,47.21,47.21,0,0,1,8,.88l13.44,2.21c7,1.11,14.05,2.37,20.89,3.58l5.92,1.05c16,2.91,32.3,6,48,9l5.47,1q9.45,1.84,18.91,3.66c11.32,2.18,23,4.44,34.53,6.74l26.7,5.35,9.17,1.9Z" style="fill:#B0BEC5"></path><path d="M289.58,238.38c-4.51,0-9.87,0-15.35-.11l-13.61-.15c-4.46,0-8.79-.16-13.12-2v-1c4.33-1.85,8.65-2,13.07-2l13.66-.16c5.49-.09,10.85-.11,15.38-.11l11.83,0c16.23.08,32.74.32,48.7.55l5.73.08q9.64.18,19.28.32c11.52.18,23.44.37,35.16.64l27.22.64,9.31.27,9,.26-9,.27c-3.11.09-6.21.17-9.31.27l-27.22.63c-11.72.27-23.64.46-35.16.65q-9.64.15-19.28.32l-5.53.08c-16,.23-32.6.47-48.9.55Z" style="fill:#B0BEC5"></path><path d="M252.82,236.59a22.81,22.81,0,0,1-5.24-.58l-.18-1c3.95-2.58,8.2-3.49,12.57-4.26l13.38-2.52c6.93-1.34,14-2.58,20.84-3.77l5.94-1.05c16.05-2.74,32.4-5.38,48.22-7.93l5.5-.89q9.52-1.5,19-3c11.37-1.82,23.14-3.7,34.73-5.47l26.91-4.1,9.25-1.35,8.9-1.31-8.86,1.84c-3,.62-6.07,1.24-9.1,1.88L408,208.4c-11.48,2.29-23.17,4.55-34.47,6.73l-19,3.67-5.47,1c-15.73,3-32,6.13-48,9l-6,1.05c-6.82,1.22-13.88,2.47-20.84,3.58l-13.43,2.2A46.44,46.44,0,0,1,252.82,236.59Z" style="fill:#B0BEC5"></path><path d="M248.82,235.94l-1.18,0-.34-.95c3.43-3.23,7.46-4.86,11.63-6.37l12.74-4.81c6.59-2.53,13.34-5,19.87-7.34l5.67-2.06c15.29-5.48,30.9-10.9,46-16.15l5.37-1.87q9.15-3.13,18.29-6.31c10.87-3.76,22.11-7.65,33.19-11.4l25.8-8.72,8.83-2.92,8.58-2.84-8.37,3.32-8.68,3.45-25.36,9.91c-10.93,4.26-22.06,8.52-32.84,12.63l-18,6.89-5.15,2c-15,5.7-30.49,11.6-45.79,17.25l-5.65,2.07c-6.52,2.38-13.27,4.85-19.95,7.15l-12.85,4.51C256.84,234.69,253.08,235.94,248.82,235.94Z" style="fill:#B0BEC5"></path><path d="M247.18,234.92c2.83-3.78,6.51-6.08,10.35-8.3l11.71-6.94c6.07-3.65,12.31-7.24,18.35-10.71l5.17-3c14.1-8.05,28.52-16.1,42.47-23.88l5-2.79q8.43-4.66,16.84-9.35c10.08-5.61,20.5-11.41,30.79-17l23.89-13.06q4.08-2.19,8.15-4.39l8-4.31L420.13,136l-7.86,4.85L389,155c-10,6.11-20.28,12.24-30.19,18.17L342.35,183l-4.75,2.84c-13.76,8.21-28,16.71-42.07,24.93l-5.21,3c-6,3.49-12.23,7.09-18.4,10.51L260.05,231c-3.85,2.22-7.69,4.26-12.37,4.82Z" style="fill:#B0BEC5"></path><path d="M247.06,234.9c2.13-4.21,5.35-7.12,8.75-10l10.33-8.87c5.33-4.63,10.83-9.23,16.15-13.69l4.64-3.88c12.51-10.39,25.33-20.84,37.74-31L329,164l15-12.17c8.94-7.26,18.19-14.77,27.33-22.09l21.26-17,7.35-5.8c2.31-1.84,4.67-3.7,7-5.57l-6.75,6-6.95,6.2-20.44,18c-8.82,7.74-17.84,15.56-26.55,23.11q-7.28,6.3-14.54,12.62l-4.21,3.63c-12.12,10.48-24.65,21.31-37.08,31.84l-4.61,3.88c-5.31,4.47-10.81,9.09-16.29,13.54l-10.53,8.63c-3.4,2.85-6.83,5.52-11.34,6.89Z" style="fill:#B0BEC5"></path><path d="M246.93,234.9c1.37-4.51,4-7.94,6.89-11.34L262.45,213c4.46-5.5,9.1-11,13.58-16.34l3.84-4.57c10.5-12.38,21.29-24.87,31.72-36.94l3.76-4.35q6.33-7.28,12.64-14.57c7.55-8.71,15.35-17.71,23.09-26.51l18-20.45q3.07-3.43,6.13-6.89l6.07-6.81-5.56,7L369.88,90l-17,21.25c-7.32,9.15-14.83,18.39-22.09,27.33q-6.09,7.48-12.16,15l-3.68,4.51c-10.06,12.36-20.47,25.13-30.83,37.6l-3.86,4.61c-4.46,5.33-9.07,10.84-13.7,16.17l-8.87,10.33c-2.86,3.4-5.77,6.63-10,8.75Z" style="fill:#B0BEC5"></path><path d="M246.81,234.92c.56-4.68,2.6-8.52,4.82-12.36l6.67-11.87c3.41-6.16,7-12.35,10.47-18.34l3.05-5.28c8.21-14,16.7-28.27,24.9-42l2.87-4.81q5-8.26,9.91-16.53c5.93-9.89,12.05-20.12,18.14-30.13L341.8,70.33c1.62-2.61,3.24-5.24,4.85-7.86s3.17-5.15,4.78-7.75l-4.26,7.91c-1.48,2.74-3,5.49-4.44,8.24L329.67,94.76c-5.64,10.3-11.45,20.74-17.06,30.84q-4.68,8.39-9.33,16.78l-2.71,4.86c-7.81,14-15.88,28.46-24,42.6l-3,5.21c-3.47,6-7.05,12.25-10.69,18.31l-7,11.71c-2.21,3.84-4.52,7.53-8.29,10.35Z" style="fill:#B0BEC5"></path><path d="M246.7,235c-.26-4.71,1.08-8.84,2.59-13l4.51-12.84c2.3-6.68,4.77-13.42,7.15-19.94L263,183.5c5.64-15.27,11.53-30.75,17.23-45.72l2-5.21q3.47-9,6.9-18c4.12-10.76,8.37-21.88,12.62-32.8l9.91-25.36c1.16-2.89,2.3-5.79,3.45-8.68s2.2-5.56,3.33-8.37l-2.86,8.61-2.91,8.81L304,82.54c-3.75,11.08-7.64,22.33-11.4,33.2q-3.17,9.14-6.32,18.29l-1.87,5.39c-5.25,15.09-10.67,30.69-16.15,46l-2,5.6c-2.37,6.55-4.83,13.32-7.37,19.94L254,223.67c-1.52,4.17-3.15,8.2-6.38,11.64Z" style="fill:#B0BEC5"></path><path d="M246.59,235c-1.07-4.59-.47-8.89.3-13.26l2.21-13.43c1.11-7,2.37-14.09,3.59-20.94l1-5.88c2.9-16,6-32.2,9-47.88l1.08-5.62q1.85-9.51,3.68-19c2.18-11.28,4.42-22.94,6.71-34.39l5.36-26.7,1.89-9.17c.6-2.9,1.2-5.84,1.82-8.79-.44,3-.88,6.06-1.32,9s-.9,6.08-1.34,9.12L276.51,75c-1.77,11.62-3.66,23.42-5.49,34.83q-1.51,9.48-3,18.95l-.91,5.61c-2.55,15.78-5.18,32.09-7.92,48.1l-1,5.88c-1.2,6.86-2.44,14-3.79,20.9l-2.52,13.38c-.77,4.37-1.68,8.62-4.26,12.57Z" style="fill:#B0BEC5"></path></g></g><g id="freepik--Stars--inject-77"><g id="freepik--stars--inject-77"><path d="M113.42,65.3l5.64,4.32,6.77-2.2a.87.87,0,0,1,1.09,1.12l-2.37,6.7L128.74,81a.87.87,0,0,1-.73,1.38l-7.11-.18L116.72,88a.87.87,0,0,1-1.54-.27l-2-6.81-6.77-2.2a.87.87,0,0,1-.23-1.54l5.86-4V66A.87.87,0,0,1,113.42,65.3Z" style="fill:#e0e0e0"></path><path d="M380.47,269.4l-.36,7.1,5.64,4.33a.87.87,0,0,1-.3,1.53l-6.88,1.85-2.37,6.7a.87.87,0,0,1-1.55.19l-3.88-6-7.11-.19a.86.86,0,0,1-.65-1.41l4.47-5.53-2-6.82a.87.87,0,0,1,1.15-1.06l6.64,2.55,5.86-4A.87.87,0,0,1,380.47,269.4Z" style="fill:#e0e0e0"></path><path d="M385.8,93.46l-.36,7.1,5.64,4.33a.87.87,0,0,1-.3,1.53l-6.87,1.85-2.38,6.7a.87.87,0,0,1-1.55.19l-3.88-6L369,109a.86.86,0,0,1-.65-1.41l4.47-5.53-2-6.82a.87.87,0,0,1,1.15-1.06l6.64,2.55,5.86-4A.87.87,0,0,1,385.8,93.46Z" style="fill:#e0e0e0"></path><path d="M56.4,351.77l6.78,2.16,5.62-4.37a.87.87,0,0,1,1.4.68l0,7.12,5.89,4a.87.87,0,0,1-.21,1.54l-6.75,2.25-2,6.83a.87.87,0,0,1-1.54.27l-4.22-5.72-7.11.23a.87.87,0,0,1-.73-1.38l4.14-5.78-2.42-6.69A.88.88,0,0,1,56.4,351.77Z" style="fill:#e0e0e0"></path><path d="M428.23,430.09l6.79,2.15,5.61-4.37a.87.87,0,0,1,1.4.68l.05,7.12,5.89,4a.86.86,0,0,1-.21,1.54L441,443.45l-2,6.83a.87.87,0,0,1-1.54.28l-4.22-5.73-7.11.23a.87.87,0,0,1-.73-1.37l4.14-5.79-2.42-6.69A.87.87,0,0,1,428.23,430.09Z" style="fill:#e0e0e0"></path><path d="M252.62,430.71l-.37,7.1,5.64,4.33a.87.87,0,0,1-.3,1.53l-6.87,1.85-2.38,6.7a.87.87,0,0,1-1.55.19l-3.87-6-7.11-.19a.87.87,0,0,1-.66-1.41l4.48-5.53-2-6.82a.87.87,0,0,1,1.14-1.06l6.64,2.55,5.87-4A.87.87,0,0,1,252.62,430.71Z" style="fill:#e0e0e0"></path><path d="M71.6,220.88a2.18,2.18,0,1,1-2.17-2.18A2.17,2.17,0,0,1,71.6,220.88Z" style="fill:#e0e0e0"></path><circle cx="42.47" cy="148.22" r="2.17" style="fill:#e0e0e0"></circle><path d="M180.66,333.89a2.17,2.17,0,1,1-2.17-2.17A2.17,2.17,0,0,1,180.66,333.89Z" style="fill:#e0e0e0"></path><path d="M329.2,409.66a2.17,2.17,0,1,1-2.17-2.17A2.17,2.17,0,0,1,329.2,409.66Z" style="fill:#e0e0e0"></path><circle cx="457.85" cy="213.89" r="2.17" style="fill:#e0e0e0"></circle><circle cx="440.86" cy="116.54" r="2.17" style="fill:#e0e0e0"></circle><path d="M293.54,78.6a2.18,2.18,0,1,1-2.18-2.18A2.18,2.18,0,0,1,293.54,78.6Z" style="fill:#e0e0e0"></path><circle cx="177.06" cy="79" r="2.17" style="fill:#e0e0e0"></circle></g></g><g id="freepik--Diplomas--inject-77"><g id="freepik--Diploma--inject-77"><path d="M361.92,211l32.6-29.39,4.34-4.34L431.06,142l.52-.57c1.21-1.2,3.2-1.61,5.71-.94,5,1.35,10.18,6.52,11.52,11.54.68,2.52.27,4.51-.94,5.72L412,190.43l-4.32,4.32L378,227.47l0,0c-1.21,1.16-3.2,1.56-5.67.89-5-1.35-10.17-6.51-11.53-11.54-.66-2.51-.25-4.51,1-5.71l.17-.17Z" style="fill:#B0BEC5"></path><path d="M361.92,211l32.6-29.39,4.34-4.34L431.06,142l.52-.57c1.21-1.2,3.2-1.61,5.71-.94,5,1.35,10.18,6.52,11.52,11.54.68,2.52.27,4.51-.94,5.72L412,190.43l-4.32,4.32L378,227.47l0,0c-1.21,1.16-3.2,1.56-5.67.89-5-1.35-10.17-6.51-11.53-11.54-.66-2.51-.25-4.51,1-5.71l.17-.17Z" style="fill:#fff;opacity:0.4"></path><path d="M432.74,140.64a3.91,3.91,0,0,0-1.16.79l-.52.57-32.2,35.26-4.34,4.34L361.92,211h0l-.17.17c-1.21,1.2-1.62,3.2-1,5.71a18,18,0,0,0,6.93,9.3l68.39-68.27S429.18,148.61,432.74,140.64Z" style="fill:#B0BEC5;opacity:0.30000000000000004"></path><path d="M437.29,140.49c-2.51-.67-4.51-.26-5.71.94s-1.62,3.2-.95,5.72c1.34,5,6.5,10.19,11.52,11.54,2.52.67,4.52.26,5.72-.94s1.62-3.21.95-5.72C447.47,147,442.32,141.84,437.29,140.49Z" style="fill:#B0BEC5"></path><path d="M361.37,211.52l.54-.54h0l32.6-29.39,4.34-4.34L431.06,142c-4.77,5.77,1.51,14.72,1.51,14.72l-70.21,70.1S355.64,217.24,361.37,211.52Z" style="fill:#B0BEC5"></path><path d="M361.37,211.52l.54-.54h0l32.6-29.39,4.34-4.34L431.06,142c-4.77,5.77,1.51,14.72,1.51,14.72l-70.21,70.1S355.64,217.24,361.37,211.52Z" style="fill:#fff;opacity:0.6000000000000001"></path><path d="M437.29,140.49c-2.51-.67-4.51-.26-5.71.94s-1.62,3.2-.95,5.72c1.34,5,6.5,10.19,11.52,11.54,2.52.67,4.52.26,5.72-.94s1.62-3.21.95-5.72C447.47,147,442.32,141.84,437.29,140.49Z" style="fill:#fff;opacity:0.25"></path><path d="M441.59,151.73c5.48,1.12,4-5.69-1.45-10.08h0a13.72,13.72,0,0,0-2.85-1.15c-2.51-.67-4.51-.26-5.71.94s-1.62,3.2-.95,5.72a17.81,17.81,0,0,0,6.53,9Z" style="fill:#B0BEC5;opacity:0.5"></path><path d="M444.39,151.29l-5.82,5.82a11.65,11.65,0,0,1-1.41-1l4.43-4.42A3.42,3.42,0,0,0,444.39,151.29Z" style="fill:#B0BEC5"></path><path d="M444.39,151.29l-5.82,5.82a11.65,11.65,0,0,1-1.41-1l4.43-4.42A3.42,3.42,0,0,0,444.39,151.29Z" style="opacity:0.1"></path><path d="M408.11,194.34c7.09,3.13,12.46,9.12,16.8,16.83a19.25,19.25,0,0,0-.32-6.91,21.5,21.5,0,0,1,5.41,1.82c-4.51-7.14-9.94-12.94-16.73-16.76L412,190.43Z" style="fill:#B0BEC5"></path><path d="M411.21,196l1.12-2.25,3.54-2.79c-.85-.56-1.71-1.1-2.6-1.6L412,190.43l-3.91,3.91A26.81,26.81,0,0,1,411.21,196Z" style="opacity:0.2"></path><path d="M394.52,181.6c-.95,1-1.27,2.58-.74,4.59a14.57,14.57,0,0,0,9.31,9.31c2,.54,3.58.23,4.56-.7l.05-.05,4.32-4.32c-1,1-2.59,1.3-4.61.76a14.56,14.56,0,0,1-9.31-9.32c-.54-2-.21-3.64.77-4.61l-4.32,4.31Z" style="fill:#B0BEC5"></path><path d="M400.7,186.61a14.19,14.19,0,0,1-2.14-3.43l-4.32,4.31a14.19,14.19,0,0,0,2.14,3.43Zm-6.92-.42v0l4.32-4.31v0a7.26,7.26,0,0,1-.25-1.93l-4.32,4.31A7.33,7.33,0,0,0,393.78,186.19Z" style="fill:#fff;opacity:0.15"></path><path d="M400.17,194.21a11.19,11.19,0,0,0,2.92,1.29c2,.54,3.58.23,4.56-.7l.05-.05,4.32-4.32c-1,1-2.59,1.3-4.61.76a11.19,11.19,0,0,1-2.92-1.29Z" style="opacity:0.1"></path></g><g id="freepik--diploma--inject-77"><path d="M54.25,240.9l40.61,22.86,5.83,2.89,46.38,20.47.75.34c1.62.81,2.7,2.68,2.88,5.43.34,5.51-3.11,12.45-7.72,15.5-2.3,1.53-4.45,1.79-6.06,1l-45-25-5.81-2.89-43-18.78-.06,0c-1.58-.83-2.65-2.69-2.82-5.41-.33-5.51,3.12-12.44,7.72-15.5,2.3-1.52,4.45-1.78,6.07-1l.23.11Z" style="fill:#B0BEC5"></path><path d="M54.25,240.9l40.61,22.86,5.83,2.89,46.38,20.47.75.34c1.62.81,2.7,2.68,2.88,5.43.34,5.51-3.11,12.45-7.72,15.5-2.3,1.53-4.45,1.79-6.06,1l-45-25-5.81-2.89-43-18.78-.06,0c-1.58-.83-2.65-2.69-2.82-5.41-.33-5.51,3.12-12.44,7.72-15.5,2.3-1.52,4.45-1.78,6.07-1l.23.11Z" style="fill:#fff;opacity:0.4"></path><path d="M149,288.35a4.26,4.26,0,0,0-1.19-.89l-.75-.34-46.38-20.47-5.83-2.89L54.25,240.9v0l-.23-.11c-1.61-.81-3.77-.55-6.07,1a19.06,19.06,0,0,0-7,10.12l91.84,45.72S139.78,287.47,149,288.35Z" style="fill:#B0BEC5;opacity:0.30000000000000004"></path><path d="M150.7,292.89c-.17-2.75-1.26-4.63-2.88-5.44s-3.77-.54-6.07,1c-4.6,3.05-8.06,10-7.72,15.5.18,2.75,1.26,4.63,2.88,5.43s3.77.55,6.07-1C147.58,305.34,151,298.4,150.7,292.89Z" style="fill:#B0BEC5"></path><path d="M53.53,240.52l.73.36v0l40.61,22.86,5.83,2.89,46.38,20.47c-7.42-2.84-14.3,6.51-14.3,6.51L38.48,246.69S45.84,236.69,53.53,240.52Z" style="fill:#B0BEC5"></path><path d="M53.53,240.52l.73.36v0l40.61,22.86,5.83,2.89,46.38,20.47c-7.42-2.84-14.3,6.51-14.3,6.51L38.48,246.69S45.84,236.69,53.53,240.52Z" style="fill:#fff;opacity:0.6000000000000001"></path><path d="M150.7,292.89c-.17-2.75-1.26-4.63-2.88-5.44s-3.77-.54-6.07,1c-4.6,3.05-8.06,10-7.72,15.5.18,2.75,1.26,4.63,2.88,5.43s3.77.55,6.07-1C147.58,305.34,151,298.4,150.7,292.89Z" style="fill:#fff;opacity:0.25"></path><path d="M140.84,301c.73,5.9,7.09,2.11,9.66-4.87h0a14.42,14.42,0,0,0,.2-3.25c-.17-2.75-1.26-4.63-2.88-5.44s-3.77-.54-6.07,1a18.82,18.82,0,0,0-6.85,9.62Z" style="fill:#B0BEC5;opacity:0.5"></path><path d="M142.23,303.69l-7.82-3.9a12.67,12.67,0,0,1,.49-1.73l5.94,2.95A3.63,3.63,0,0,0,142.23,303.69Z" style="fill:#B0BEC5"></path><path d="M142.23,303.69l-7.82-3.9a12.67,12.67,0,0,1,.49-1.73l5.94,2.95A3.63,3.63,0,0,0,142.23,303.69Z" style="opacity:0.1"></path><path d="M86.64,281.74c-.75,8.19-5,15.63-11.25,22.6a20.35,20.35,0,0,0,6.84-2.66,22.4,22.4,0,0,1,0,6.07c5.65-7,9.66-14.39,11.2-22.52l-1.54-.87Z" style="fill:#B0BEC5"></path><path d="M86.05,285.41l2.65.36,4,2.62c.28-1,.53-2.09.73-3.16l-1.54-.87-5.25-2.62A29.85,29.85,0,0,1,86.05,285.41Z" style="opacity:0.2"></path><path d="M94.86,263.76c-1.3-.63-3-.41-4.87.81a15.43,15.43,0,0,0-6.22,12.51c.13,2.18,1,3.68,2.25,4.35l.06,0,5.81,2.9c-1.31-.65-2.18-2.17-2.32-4.39a15.41,15.41,0,0,1,6.23-12.51c1.85-1.24,3.59-1.45,4.9-.8l-5.8-2.89Z" style="fill:#B0BEC5"></path><path d="M91.91,271.67a14.57,14.57,0,0,1,2.73-3.31l-5.8-2.89a14.57,14.57,0,0,0-2.73,3.31ZM90,264.57l0,0,5.8,2.89,0,0a7.24,7.24,0,0,1,1.86-.91l-5.8-2.89A7.29,7.29,0,0,0,90,264.57Z" style="fill:#fff;opacity:0.15"></path><path d="M84.08,273.71a11.9,11.9,0,0,0-.31,3.37c.13,2.18,1,3.68,2.25,4.35l.06,0,5.81,2.9c-1.31-.65-2.18-2.17-2.32-4.39a11.9,11.9,0,0,1,.31-3.37Z" style="opacity:0.1"></path></g><g id="freepik--diploma--inject-77"><path d="M235.65,318.43l32.89,23.67,4.77,3.06,38.1,22.16.62.37c1.32.85,2.07,2.57,2,5a16.63,16.63,0,0,1-8.16,12.65c-2.14,1.1-4,1.12-5.34.27l-36.5-26-4.74-3.06-35.31-20.37-.05,0c-1.29-.87-2-2.59-1.92-4.95a16.72,16.72,0,0,1,8.16-12.65c2.14-1.09,4-1.11,5.35-.26l.18.12Z" style="fill:#B0BEC5"></path><path d="M235.65,318.43l32.89,23.67,4.77,3.06,38.1,22.16.62.37c1.32.85,2.07,2.57,2,5a16.63,16.63,0,0,1-8.16,12.65c-2.14,1.1-4,1.12-5.34.27l-36.5-26-4.74-3.06-35.31-20.37-.05,0c-1.29-.87-2-2.59-1.92-4.95a16.72,16.72,0,0,1,8.16-12.65c2.14-1.09,4-1.11,5.35-.26l.18.12Z" style="fill:#fff;opacity:0.4"></path><path d="M313,368.57a3.73,3.73,0,0,0-.94-.88l-.62-.37-38.1-22.16-4.77-3.06-32.89-23.67v0l-.18-.12c-1.32-.85-3.21-.83-5.34.26a16.58,16.58,0,0,0-7,8.07l75,48.36S305.08,366.92,313,368.57Z" style="fill:#B0BEC5;opacity:0.30000000000000004"></path><path d="M314,372.66c.12-2.4-.64-4.13-2-5s-3.21-.83-5.35.27a16.63,16.63,0,0,0-8.16,12.65c-.11,2.39.64,4.12,2,5s3.2.83,5.34-.26A16.65,16.65,0,0,0,314,372.66Z" style="fill:#B0BEC5"></path><path d="M235.07,318l.59.38v0l32.89,23.67,4.77,3.06,38.1,22.16c-6.14-3.17-13,4.25-13,4.25l-77-49.66S228.79,314,235.07,318Z" style="fill:#B0BEC5"></path><path d="M235.07,318l.59.38v0l32.89,23.67,4.77,3.06,38.1,22.16c-6.14-3.17-13,4.25-13,4.25l-77-49.66S228.79,314,235.07,318Z" style="fill:#fff;opacity:0.6000000000000001"></path><path d="M314,372.66c.12-2.4-.64-4.13-2-5s-3.21-.83-5.35.27a16.63,16.63,0,0,0-8.16,12.65c-.11,2.39.64,4.12,2,5s3.2.83,5.34-.26A16.65,16.65,0,0,0,314,372.66Z" style="fill:#fff;opacity:0.25"></path><path d="M304.69,378.72c.06,5.17,5.92,2.51,8.81-3.27h0a12.12,12.12,0,0,0,.49-2.79c.12-2.4-.64-4.13-2-5s-3.21-.83-5.35.27a16.4,16.4,0,0,0-6.84,7.65Z" style="fill:#B0BEC5;opacity:0.5"></path><path d="M305.63,381.17l-6.38-4.12a10.24,10.24,0,0,1,.59-1.45l4.85,3.12A3.17,3.17,0,0,0,305.63,381.17Z" style="fill:#B0BEC5"></path><path d="M305.63,381.17l-6.38-4.12a10.24,10.24,0,0,1,.59-1.45l4.85,3.12A3.17,3.17,0,0,0,305.63,381.17Z" style="opacity:0.1"></path><path d="M259.7,356.85c-1.43,7-5.79,13-11.9,18.44a17.65,17.65,0,0,0,6.17-1.64,19.67,19.67,0,0,1-.58,5.24c5.55-5.46,9.73-11.49,11.85-18.37l-1.25-.91Z" style="fill:#B0BEC5"></path><path d="M258.84,360l2.25.57,3.21,2.65c.35-.88.66-1.76.94-2.66l-1.25-.91-4.29-2.76A23.44,23.44,0,0,1,258.84,360Z" style="opacity:0.2"></path><path d="M268.54,342.1c-1.06-.67-2.57-.65-4.28.23a13.42,13.42,0,0,0-6.59,10.21c-.09,1.9.5,3.28,1.53,4l.05,0,4.74,3.06c-1.07-.69-1.68-2.08-1.58-4A13.42,13.42,0,0,1,269,345.38c1.72-.88,3.24-.9,4.31-.21l-4.74-3.05Z" style="fill:#B0BEC5"></path><path d="M265.23,348.65a12.65,12.65,0,0,1,2.68-2.6L263.17,343a12.42,12.42,0,0,0-2.68,2.6Zm-1-6.32h0L269,345.4l0,0a6.38,6.38,0,0,1,1.69-.6L266,341.72A6.36,6.36,0,0,0,264.26,342.33Z" style="fill:#fff;opacity:0.15"></path><path d="M258.27,349.66a10.43,10.43,0,0,0-.6,2.88c-.09,1.9.5,3.28,1.53,4l.05,0,4.74,3.06c-1.07-.69-1.68-2.08-1.58-4a10.12,10.12,0,0,1,.59-2.89Z" style="opacity:0.1"></path></g></g><g id="freepik--graduation-hat-3--inject-77"><g id="freepik--graduation-hat--inject-77"><path d="M420.07,410.24c-3.22,5.61-10.13,9.14-20,9.27-19.91.26-44.31-13.4-54.5-30.51-5-8.41-5.64-16.08-2.64-21.74.05-.09.09-.19.14-.28l18.37-32.82c-3.19,5.69-2.61,13.49,2.48,22,10.19,17.12,34.59,30.78,54.51,30.51,10-.14,16.9-3.72,20.09-9.41l-18.35,32.78C420.14,410.15,420.1,410.19,420.07,410.24Z" style="fill:#37474f"></path><path d="M426.79,398.25c-3.23,5.61-10.14,9.14-20,9.27-19.92.26-44.32-13.4-54.51-30.51-5-8.41-5.64-16.08-2.63-21.74a2.39,2.39,0,0,1,.13-.28l1.94-3.46c-3.19,5.69-2.61,13.49,2.48,22.05,10.19,17.11,34.59,30.77,54.51,30.5,10-.13,16.9-3.72,20.09-9.41l-1.92,3.43Z" style="fill:#B0BEC5"></path><path d="M362.11,377.36c-8.14-3.87-14.51,4.76-11.12,19a48.74,48.74,0,0,1-5.42-7.35c-5-8.41-5.64-16.08-2.64-21.74.05-.09.09-.19.14-.28l18.37-32.82c-3.19,5.69-2.61,13.49,2.48,22,10.19,17.12,34.59,30.78,54.51,30.51h0C394.37,388.78,373,382.52,362.11,377.36Z" style="opacity:0.2"></path><ellipse cx="399.98" cy="355.73" rx="25.5" ry="44.17" transform="translate(-105.8 531) rotate(-60.76)" style="fill:#263238"></ellipse><polygon points="464.28 392.16 420.62 318.86 335.31 319.97 332.46 325.05 376.11 398.38 461.44 397.24 464.28 392.16" style="fill:#37474f"></polygon><polygon points="376.11 398.38 378.95 393.3 464.28 392.16 461.44 397.24 376.11 398.38" style="fill:#fff;opacity:0.2"></polygon><polygon points="378.95 393.3 462.52 393.15 461.44 397.24 464.28 392.16 378.95 393.3" style="fill:#fff;opacity:0.2"></polygon><polygon points="420.62 318.86 335.31 319.97 378.95 393.3 464.28 392.16 420.62 318.86" style="fill:#455a64"></polygon><path d="M426.24,278.59c0-.78-1.16-1.66-1.66-.76a85.83,85.83,0,0,0-3.84,8.86,71.74,71.74,0,0,1-4.31,8.53c-3.09,5.23-7,9.59-11.15,14s-7.69,9-9.77,14.77a37.71,37.71,0,0,0-2.13,15.9,39.59,39.59,0,0,0,1.9,9.26,20.34,20.34,0,0,0,5.05,8.51c.57.51,1.61.45,1.4-.56a25.14,25.14,0,0,0-1.35-3.69c-.48-1.3-.94-2.63-1.38-3.95a34.3,34.3,0,0,1-1.64-8.19,37.41,37.41,0,0,1,1.95-15.32,38.06,38.06,0,0,1,9-13.72c4.32-4.49,8.45-9,11.67-14.35a53.21,53.21,0,0,0,4.37-9,40.58,40.58,0,0,0,1.52-5A18.48,18.48,0,0,0,426.24,278.59Z" style="fill:#B0BEC5"></path><path d="M411.73,239.34a132.43,132.43,0,0,1,7.73,19.35c4.07,13,1.87,18.91,5.48,19.23,3.29.28,7.55-10.68,9.05-23.45a40,40,0,0,0-2.5-19.9,1.3,1.3,0,0,0-1.53-.76,1.08,1.08,0,0,0-.81,1.11c-.42-1-.7-1.74-1.79-1.56a1.24,1.24,0,0,0-.91,1.58c.93,3.47,2.86,11.94,1.63,18.72-.31-8.39-3.4-16.29-5.08-20.12a1.3,1.3,0,0,0-1.53-.74h0a1.3,1.3,0,0,0-.86,1.75c1.6,3.84,6,14,5.18,26.39-.51-10.85-4.87-20.83-6.39-23.93a1.48,1.48,0,0,0-1.88-.85h0a1.39,1.39,0,0,0-.62,2c1.45,3,5,11.53,5.61,19.09-.21-.61-5-12.64-8.19-19.12a1.28,1.28,0,0,0-1.52-.68l-.23.06A1.3,1.3,0,0,0,411.73,239.34Zm18.08,23.21c1-5.91,2.53-15.86,0-25.09C433.49,248.7,431.63,255.88,429.81,262.55Z" style="fill:#B0BEC5"></path><path d="M421.89,280.12a4.45,4.45,0,1,0,.95-6.22A4.44,4.44,0,0,0,421.89,280.12Z" style="fill:#B0BEC5"></path><path d="M421.89,280.12a4.45,4.45,0,1,0,.95-6.22A4.44,4.44,0,0,0,421.89,280.12Z" style="opacity:0.2"></path><path d="M395.17,352.92a2.75,2.75,0,0,1,2.53-1.19,8.71,8.71,0,0,1,6.89,3.85,2.77,2.77,0,0,1,.31,2.78L404,360a2.78,2.78,0,0,1-2.54,1.19,8.73,8.73,0,0,1-6.88-3.85,2.77,2.77,0,0,1-.31-2.79Z" style="fill:#263238"></path><path d="M402.36,359.55c2.52,0,3.51-1.81,2.23-4a8.71,8.71,0,0,0-6.89-3.85c-2.51,0-3.51,1.81-2.22,4A8.71,8.71,0,0,0,402.36,359.55Z" style="fill:#37474f"></path></g></g><g id="freepik--graduation-hat-2--inject-77"><g id="freepik--graduation-hat--inject-77"><path d="M113.27,430c1.9,6.19,7.84,11.17,17.43,13.5,19.36,4.7,46.19-3.18,59.94-17.59,6.75-7.07,9.08-14.41,7.42-20.6,0-.1,0-.21-.07-.3L187.4,369c1.84,6.26-.47,13.73-7.34,20.94-13.75,14.41-40.58,22.28-59.93,17.58-9.68-2.35-15.66-7.4-17.49-13.66l10.57,36.06A1,1,0,0,1,113.27,430Z" style="fill:#37474f"></path><path d="M109.41,416.85c1.89,6.18,7.83,11.16,17.42,13.49,19.36,4.7,46.19-3.17,59.94-17.58,6.75-7.08,9.08-14.42,7.42-20.61,0-.1,0-.2-.07-.3L193,388c1.84,6.26-.46,13.73-7.34,20.94-13.74,14.42-40.58,22.29-59.93,17.59-9.68-2.36-15.65-7.4-17.49-13.66l1.11,3.77A1.15,1.15,0,0,0,109.41,416.85Z" style="fill:#B0BEC5"></path><path d="M177.11,410.91c8.79-2,13.08,7.88,6.61,21a49.07,49.07,0,0,0,6.92-6c6.75-7.07,9.08-14.41,7.42-20.6,0-.1,0-.21-.07-.3L187.4,369c1.84,6.26-.47,13.73-7.34,20.94-13.75,14.41-40.58,22.28-59.93,17.58h0C143.11,414.84,165.39,413.51,177.11,410.91Z" style="opacity:0.2"></path><ellipse cx="145.02" cy="381.38" rx="44.17" ry="25.5" transform="translate(-101.5 56.25) rotate(-16.35)" style="fill:#263238"></ellipse><polygon points="74.21 402.55 133.12 340.83 216.04 360.94 217.68 366.52 158.78 428.27 75.85 408.13 74.21 402.55" style="fill:#37474f"></polygon><polygon points="158.78 428.27 157.14 422.69 74.21 402.55 75.85 408.13 158.78 428.27" style="fill:#fff;opacity:0.2"></polygon><polygon points="157.14 422.69 75.71 403.91 75.85 408.13 74.21 402.55 157.14 422.69" style="fill:#fff;opacity:0.2"></polygon><polygon points="133.12 340.83 216.04 360.94 157.14 422.69 74.21 402.55 133.12 340.83" style="fill:#455a64"></polygon><path d="M93.8,434.81a36.41,36.41,0,0,1,1.54-4.4,35,35,0,0,0,1.3-4.85,64.56,64.56,0,0,0,.71-10.12,41.11,41.11,0,0,1,4.23-16.75,37.42,37.42,0,0,1,24.71-19.79,35.76,35.76,0,0,1,9.45-.91,27.31,27.31,0,0,1,4.51.5c1.55.31,3.39.57,4.68,1.56.72.55.08,2.09-.76,2.1a39.49,39.49,0,0,1-4.34-.5c-1.38-.15-2.76-.24-4.15-.26a35.19,35.19,0,0,0-7.72.79,31.51,31.51,0,0,0-13.67,6.51,36.54,36.54,0,0,0-12.88,26.23c-.35,7-.61,15-5.63,20.41C95.21,436,93.5,436.16,93.8,434.81Z" style="fill:#B0BEC5"></path><path d="M63,462.28l.15.17a1.3,1.3,0,0,0,1.66.22c6.08-3.87,16.49-11.59,17-12C77.31,456.79,69.8,462.23,67,464a1.4,1.4,0,0,0-.51,2h0a1.48,1.48,0,0,0,2,.26c2.92-1.84,11.86-8.06,18-17-5.77,11-14.87,17.33-18.24,19.76a1.3,1.3,0,0,0-.18,1.94l0,0a1.3,1.3,0,0,0,1.69.18c3.44-2.39,10.21-7.49,14.87-14.47-2.51,6.41-8.59,12.61-11.2,15.08a1.25,1.25,0,0,0,0,1.83c.83.72,1.45.24,2.34-.4a1.08,1.08,0,0,0,.11,1.37,1.3,1.3,0,0,0,1.7.16,40.15,40.15,0,0,0,12.56-15.64c5.41-11.67,7.52-23.24,4.57-24.72-3.24-1.61-4.47,4.58-14.74,13.52a134.53,134.53,0,0,1-16.72,12.43A1.29,1.29,0,0,0,63,462.28Zm14.65,9.08c7-6.52,10.93-15.8,13.18-21.35C88.88,456.64,86.71,463.73,77.65,471.36Z" style="fill:#B0BEC5"></path><path d="M93.29,430.89a4.45,4.45,0,1,1-2.45,5.8A4.44,4.44,0,0,1,93.29,430.89Z" style="fill:#B0BEC5"></path><path d="M93.29,430.89a4.45,4.45,0,1,1-2.45,5.8A4.44,4.44,0,0,1,93.29,430.89Z" style="opacity:0.2"></path><path d="M150.34,379.71a2.77,2.77,0,0,0-2.21-1.73,8.74,8.74,0,0,0-7.57,2.22,2.77,2.77,0,0,0-.92,2.65c.08.29.42,1.45.51,1.74a2.79,2.79,0,0,0,2.21,1.73,8.74,8.74,0,0,0,7.57-2.22,2.8,2.8,0,0,0,.92-2.65C150.77,381.16,150.43,380,150.34,379.71Z" style="fill:#263238"></path><path d="M141.84,384.57c-2.44-.59-3-2.55-1.28-4.37a8.74,8.74,0,0,1,7.57-2.22c2.44.59,3,2.55,1.28,4.37A8.72,8.72,0,0,1,141.84,384.57Z" style="fill:#37474f"></path></g></g><g id="freepik--graduation-hat-1--inject-77"><g id="freepik--graduation-hat--inject-77"><path d="M79.32,100.58l-.35,0a2,2,0,0,0-1.77,1.81c-.84,10.89-1,30.55-.91,31.53-3.33-11-3.1-25.07-2.71-30a2.11,2.11,0,0,0-2-2.45h0a2.26,2.26,0,0,0-2.18,2.24c-.42,5.21-1,21.72,4.31,37.29-8.07-17-7.5-33.79-7.39-40.09a2,2,0,0,0-2.17-2H64.1a2,2,0,0,0-1.76,1.89c-.23,6.34-.2,19.2,4,31.2-5.5-8.87-7.49-21.89-8.11-27.31A1.89,1.89,0,0,0,56.09,103c-1.63.36-1.61,1.54-1.65,3.19a1.64,1.64,0,0,0-1.76-1.1A2,2,0,0,0,51,107a60.86,60.86,0,0,0,7.54,29.46c9.23,17.17,21.35,30.26,25.83,28,4.9-2.47-1.49-9.59-3-30.18a203.62,203.62,0,0,1,.13-31.58A2,2,0,0,0,79.32,100.58ZM55,110.1c1.53,14.44,9.23,27.63,13.91,35.4C62.61,137.11,56,128,55,110.1Z" style="fill:#B0BEC5"></path><path d="M253.63,198.38a71,71,0,0,0-14.33-17,91.08,91.08,0,0,0-16.48-11.78,79,79,0,0,0-38.34-10.09,67.83,67.83,0,0,0-19.91,3,95.24,95.24,0,0,0-17.34,7.85c-5.08,2.8-10.1,5.75-15.39,8.14-1.37.63-1.9.85-3.11,1.31-1.43.55-2.87,1-4.33,1.45a34.35,34.35,0,0,1-7.6,1.36,30.09,30.09,0,0,1-16.85-4,35.38,35.38,0,0,1-7.86-6,32.43,32.43,0,0,1-3.52-4c-.4-.57-.8-1.14-1.23-1.69a7.84,7.84,0,0,0-1.3-1.34,4.85,4.85,0,0,1-1.75-2.28c-.57-1.06-2.47-1-2.16.45s.11,3,.52,4.41A13.39,13.39,0,0,0,84,171a38.93,38.93,0,0,0,2.71,4.23A32.83,32.83,0,0,0,93.81,182a35.67,35.67,0,0,0,15.89,6.42c12.13,1.63,23.35-3.27,33.77-8.95,5.13-2.79,10.18-5.73,15.46-8.25a61,61,0,0,1,17.85-5.41,70.33,70.33,0,0,1,38.64,6A92.46,92.46,0,0,1,234,183.1c6.51,5.09,12.37,11,18.23,16.8C253.28,200.92,254.19,199.33,253.63,198.38Z" style="fill:#B0BEC5"></path><path d="M89.84,165.87A6.75,6.75,0,1,1,85,157.63,6.75,6.75,0,0,1,89.84,165.87Z" style="fill:#B0BEC5"></path><path d="M89.84,165.87A6.75,6.75,0,1,1,85,157.63,6.75,6.75,0,0,1,89.84,165.87Z" style="opacity:0.2"></path><polygon points="352.7 162.57 257.53 257.64 127.59 222.82 125.22 213.96 220.39 118.85 350.33 153.71 352.7 162.57" style="fill:#37474f"></polygon><polygon points="220.39 118.85 222.76 127.71 352.7 162.57 350.33 153.71 220.39 118.85" style="fill:#fff;opacity:0.2"></polygon><polygon points="222.76 127.71 350.38 160.38 350.33 153.71 352.7 162.57 222.76 127.71" style="fill:#fff;opacity:0.2"></polygon><polygon points="257.53 257.64 127.6 222.82 222.76 127.71 352.7 162.57 257.53 257.64" style="fill:#455a64"></polygon><path d="M308.86,180.16c-2.75-9.82-11.93-17.89-27-21.92-30.33-8.14-72.92,3.26-95.13,25.46-10.91,10.9-14.85,22.37-12.47,32.2,0,.15.06.32.1.47l12.82,47.9c-2.66-9.93,1.25-21.62,12.36-32.73,22.21-22.2,64.79-33.59,95.12-25.45,15.17,4.07,24.39,12.25,27.05,22.18L309,180.43Z" style="fill:#37474f"></path><path d="M314.46,201.09c-2.75-9.82-11.93-17.89-27-21.92-30.33-8.14-72.92,3.26-95.13,25.46-10.9,10.9-14.85,22.37-12.46,32.19,0,.16.05.32.09.48l1.62,6c-2.66-9.93,1.25-21.62,12.35-32.72,22.21-22.2,64.8-33.6,95.13-25.46,15.17,4.07,24.39,12.25,27,22.18l-1.6-6Z" style="fill:#B0BEC5"></path><path d="M207.53,207.9c-13.93,2.75-20.32-12.91-9.63-33.33a77.85,77.85,0,0,0-11.13,9.13c-10.91,10.9-14.85,22.37-12.47,32.2,0,.15.06.32.1.47l12.82,47.9c-2.66-9.93,1.25-21.62,12.36-32.73,22.21-22.2,64.79-33.59,95.12-25.45h0C258.75,193.61,226.1,204.24,207.53,207.9Z" style="opacity:0.2"></path><ellipse cx="254.49" cy="246.27" rx="69.63" ry="40.2" transform="translate(-55.02 74.17) rotate(-14.98)" style="fill:#263238"></ellipse><ellipse cx="254.49" cy="246.27" rx="66.96" ry="37.46" transform="translate(-55.02 74.17) rotate(-14.98)" style="fill:#37474f"></ellipse><path d="M250,272.57c-22-7.48-25-39.81-6.84-56.4l-30.61,8.2a75.65,75.65,0,0,0-10.69,8.56c-21.48,20.89-15.35,43.8,13.7,51.17,27.94,7.09,66.9-2.79,88.94-22.15C287.88,270.67,265,277.65,250,272.57Z" style="opacity:0.2"></path><path d="M201.9,232.93c-1.08,1-2.07,2.11-3,3.17,1.34.44,2.73.86,4.19,1.23,29,7.37,70-3.59,91.48-24.48,1.08-1,2.07-2.11,3-3.16-1.35-.45-2.73-.87-4.2-1.24C264.34,201.08,223.38,212,201.9,232.93Z"></path></g></g></svg>
